<svg width="20" height="14" viewBox="0 0 20 14" fill="none" xmlns="http://www.w3.org/2000/svg">
<path fill-rule="evenodd" clip-rule="evenodd" d="M19.5303 2.03302C19.5303 1.39998 19.0528 0.886792 18.4637 0.886792H17.397C16.8079 0.886792 16.3303 1.39998 16.3303 2.03302V11.967C16.3303 12.6 16.8079 13.1132 17.397 13.1132H18.4637C19.0528 13.1132 19.5303 12.6 19.5303 11.967V2.03302ZM12.0962 3.33207H13.1629C13.752 3.33207 14.2295 3.85757 14.2295 4.50581V11.9395C14.2295 12.5877 13.752 13.1132 13.1629 13.1132H12.0962C11.5071 13.1132 11.0295 12.5877 11.0295 11.9395V4.50581C11.0295 3.85757 11.5071 3.33207 12.0962 3.33207ZM7.76444 5.98112H6.69777C6.10867 5.98112 5.6311 6.51331 5.6311 7.1698V11.9245C5.6311 12.581 6.10867 13.1132 6.69777 13.1132H7.76444C8.35354 13.1132 8.8311 12.581 8.8311 11.9245V7.1698C8.8311 6.51331 8.35354 5.98112 7.76444 5.98112ZM2.46366 8.42642H1.39699C0.807885 8.42642 0.330322 8.951 0.330322 9.59811V11.9415C0.330322 12.5886 0.807885 13.1132 1.39699 13.1132H2.46366C3.05276 13.1132 3.53032 12.5886 3.53032 11.9415V9.59811C3.53032 8.951 3.05276 8.42642 2.46366 8.42642Z" fill="white"/>
</svg>
