<svg width="40" height="40" viewBox="0 0 40 40" fill="none" xmlns="http://www.w3.org/2000/svg">
<path d="M1.1781 22.4156L6.28435 17.3844L14.9781 15.8438L14.1187 20.3938L2.3656 24.0062L1.60623 23.6781L1.1781 22.4156Z" fill="#CA2C31"/>
<path d="M7.16875 18.675L1.625 23.7125L5.70312 25.7L11.8938 22.5406V21.05L13.1594 17.6375L7.16875 18.675ZM20.2875 27.5469L17.6094 28.7094L15.0812 34.0687C15.0812 34.0687 17.3062 38.9969 17.4062 38.9969C17.5063 38.9969 18.7719 39.0969 18.7719 39.0969L23.2719 34.0656L24.4094 25.4719L20.2875 27.5469Z" fill="#A02422"/>
<path d="M17.6562 31.5125C17.6562 31.5125 19.1469 31.2094 20.2094 30.7031C21.2719 30.1969 22.5844 29.4406 22.5844 29.4406L22.1031 33.6375L17.4 38.9906C17.4 38.9906 17.2156 38.7625 16.4344 37.0625C15.8125 35.7063 15.5969 35.2219 15.5969 35.2219L17.6562 31.5125Z" fill="#CA2C31"/>
<path d="M9.86874 25.2063C9.86874 25.2063 8.07499 25.0563 6.10936 27.5406C4.31561 29.8094 3.47499 33.5031 3.14999 34.4531C2.82499 35.4031 2.04686 35.5969 2.30624 36.0313C2.56561 36.4656 3.68749 36.4406 5.07186 36.2688C6.45624 36.0969 7.64374 35.6625 7.64374 35.6625C7.64374 35.6625 7.58436 35.8125 7.38436 36.1375C7.31249 36.2531 7.06249 36.4188 7.08124 36.5906C7.12499 37 10.6312 37.0094 13.4312 34.1281C16.4562 31.0188 14.9875 28.4688 14.9875 28.4688L9.86874 25.2063Z" fill="#F7D74D"/>
<path d="M10.4094 26.6531C10.4094 26.6531 8.47499 26.7562 6.87499 29.2406C5.27499 31.725 4.53124 34.6031 4.68437 34.7969C4.83437 34.9906 7.81562 33.9125 8.53124 34.1281C9.02187 34.2781 8.76874 34.775 8.89999 34.9062C9.00937 35.0156 10.3031 35.2 12.3969 32.9312C14.4937 30.6625 13.9969 27.475 13.9969 27.475L10.4094 26.6531Z" fill="#FBF0B4"/>
<path d="M11.3594 23.2625C11.3594 23.2625 10.3875 24.1281 10.0406 24.625C9.69373 25.1219 9.69373 25.1656 9.7156 25.3156C9.73748 25.4656 10.0969 27.1125 11.5937 28.5562C13.4312 30.3281 15.0719 30.5656 15.3094 30.5656C15.5469 30.5656 17.125 28.7937 17.125 28.7937L11.3594 23.2625Z" fill="#858585"/>
<path d="M15.6562 28.5125C15.6562 28.5125 17.2313 29.5469 19.8719 28.6594C23.4812 27.4469 26.1281 24.7344 29.4062 21.3094C32.5687 18.0031 35.2219 13.9 35.2219 13.9L33.3625 7.67188L15.6562 28.5125Z" fill="#437687"/>
<path d="M21.2469 25.1031L21.6813 23.7531L22.7688 23.9063C22.7688 23.9063 23.5969 24.2969 24.2063 24.5813C24.8156 24.8656 25.6 25.0813 25.6 25.0813L24.0531 26.3875C24.0531 26.3875 23.2094 26.0688 22.5938 25.8C21.9 25.4969 21.2469 25.1031 21.2469 25.1031Z" fill="#3F545F"/>
<path d="M26.35 5.04375C26.35 5.04375 23.3438 6.7875 19.0344 10.8656C15.15 14.5406 12.2719 17.8656 11.575 20.6938C10.9938 23.0625 11.3031 24.5 12.625 26.0531C14.0219 27.6969 15.6594 28.5125 15.6594 28.5125C15.6594 28.5125 16.8906 28.5313 22.0281 24.5781C28.4375 19.6438 33.5719 11.3813 33.5719 11.3813L26.35 5.04375Z" fill="#8DAFBF"/>
<path d="M32.5563 13.075C32.5563 13.075 29.9407 11.9594 28.075 9.35625C26.2219 6.77187 26.3688 5.025 26.3688 5.025C26.3688 5.025 27.9188 3.80937 31.4032 2.41875C33.7469 1.48437 36.9375 1.00625 37.9875 1.78437C39.0375 2.5625 37.2688 6.46562 37.2688 6.46562L34.0469 12.7031L32.5563 13.075Z" fill="#D83F22"/>
<path d="M21.3031 25.125C21.3031 25.125 19.0438 23.9719 17.6063 22.3312C14.8875 19.2344 14.325 15.8344 14.325 15.8344L15.6906 14.2312C15.6906 14.2312 16.0313 17.8437 18.9469 20.9656C20.8469 23 22.8313 23.9312 22.8313 23.9312C22.8313 23.9312 22.4344 24.2656 22.0094 24.5906C21.7375 24.8 21.3031 25.125 21.3031 25.125Z" fill="#6896A5"/>
<path d="M35.2219 13.9C35.2219 13.9 36.5782 12.2656 37.8625 8.58125C39.6563 3.44375 38.0938 1.8875 38.0938 1.8875C38.0938 1.8875 37.5656 4.33125 35.7313 7.72813C34.2594 10.45 32.4781 13.0406 32.4781 13.0406C32.4781 13.0406 33.4594 13.4813 33.9906 13.6344C34.6594 13.8281 35.2219 13.9 35.2219 13.9Z" fill="#A02422"/>
<path d="M12.4406 21.7688C12.8468 22.1563 13.4625 21.75 13.8656 20.8C14.2718 19.85 14.2656 19.3188 13.9531 19.0938C13.5656 18.8125 12.9156 19.4281 12.6312 19.975C12.3187 20.5813 12.1343 21.475 12.4406 21.7688ZM26.5468 6.29063C26.5468 6.29063 24.1687 8 21.6312 10.325C19.3031 12.4594 17.7593 14.1281 17.5468 14.5156C17.3218 14.9313 17.3187 15.5188 17.4937 15.8188C17.6687 16.1188 18.0562 16.275 18.4093 16.0125C18.7625 15.7469 21.2781 12.9656 23.55 10.9781C25.6281 9.15938 27.2312 8.00625 27.2312 8.00625C27.2312 8.00625 27.8812 6.85625 27.775 6.59375C27.6687 6.32813 26.5468 6.29063 26.5468 6.29063Z" fill="#B3E1EE"/>
<path d="M26.5469 6.29063C26.5469 6.29063 28.3031 4.94375 30.2156 3.99688C31.9938 3.11563 33.7625 2.38125 34.0813 3.01875C34.3844 3.625 32.4031 4.45 30.6594 5.5625C28.9156 6.675 27.2375 8.00313 27.2375 8.00313C27.2375 8.00313 26.9813 7.53438 26.8156 7.1C26.7108 6.83553 26.621 6.5653 26.5469 6.29063Z" fill="#ED6A65"/>
<path d="M27.9969 12.2656C26.2563 10.6625 23.8344 11.0938 22.6407 12.5188C21.4157 13.9875 21.5063 16.2313 22.9532 17.5813C24.2688 18.8063 26.7157 19.0844 28.1907 17.3656C29.5032 15.8406 29.4219 13.575 27.9969 12.2656Z" fill="#E1E1E1"/>
<path d="M23.5406 13.0844C22.5062 14.1 22.5625 16.1125 23.7937 17.0312C24.8687 17.8344 26.3937 17.7938 27.35 16.8156C28.3062 15.8375 28.3062 14.0594 27.4094 13.1406C26.3781 12.0875 24.725 11.9219 23.5406 13.0844Z" fill="#3F545F"/>
<path d="M15.625 24.0281C15.625 24.0281 17.5593 22.0656 17.7718 22.2781C17.9843 22.4906 17.9562 23.6813 17.0312 25.0063C16.1031 26.3313 14.0625 28.6906 12.4468 30.2813C10.8531 31.8469 8.60622 33.6375 8.39372 33.6063C8.2281 33.5813 7.55622 33.2469 7.28747 32.9219C7.02497 32.6 7.80935 31.0781 8.12497 30.575C8.44372 30.0719 15.625 24.0281 15.625 24.0281Z" fill="#A02524"/>
<path d="M6.63439 31.8281C6.60939 32.2781 7.29689 32.9344 7.29689 32.9344L17.7719 22.2812C17.7719 22.2812 17.2813 21.7281 15.8375 22.625C14.3813 23.5312 13.1063 24.6187 11.225 26.4406C8.60314 28.9844 6.65939 31.3781 6.63439 31.8281Z" fill="#CA2C31"/>
<path d="M5.95626 11.5469C5.60939 11.8938 5.59376 12.45 5.98126 12.7688C6.32501 13.0531 6.88439 12.8688 7.09376 12.6125C7.30314 12.3563 7.27814 11.8 7.00001 11.525C6.72189 11.2469 6.16876 11.3375 5.95626 11.5469Z" fill="white"/>
<path opacity="0.5" d="M12.8188 11.1406C12.5563 11.4312 12.6407 11.8625 12.8844 12.0219C13.1282 12.1812 13.4938 12.1656 13.6719 11.9469C13.8313 11.75 13.85 11.3562 13.6063 11.1125C13.3938 10.9031 12.9875 10.9531 12.8188 11.1406Z" fill="white"/>
<path d="M17.3594 3.71563C17.3594 3.71563 17.7406 2.62813 17.9656 2.61563C18.1938 2.60313 18.5219 3.70313 18.5219 3.70313C18.5219 3.70313 19.65 3.71563 19.725 3.88125C19.8219 4.09375 19.0031 4.80625 19.0031 4.80625C19.0031 4.80625 19.2688 5.86875 19.1438 5.99688C19.0031 6.1375 18.0313 5.57813 18.0313 5.57813C18.0313 5.57813 17.0313 6.275 16.8156 6.08438C16.6281 5.91875 17.0188 4.79375 17.0188 4.79375C17.0188 4.79375 16.0813 4.10938 16.1313 3.91875C16.2031 3.65 17.3594 3.71563 17.3594 3.71563ZM30.3156 29.7906C30.6938 30 31.1688 29.8813 31.3438 29.4781C31.5031 29.1188 31.2094 28.6906 30.9438 28.575C30.6781 28.4594 30.2125 28.6125 30.0438 28.9156C29.8781 29.2156 30.0875 29.6656 30.3156 29.7906ZM35.6844 20.575C35.4688 20.2406 35.0031 20.1313 34.7 20.4C34.4063 20.6625 34.4781 21.075 34.6438 21.2844C34.8094 21.4938 35.2531 21.5719 35.5219 21.4C35.7906 21.2281 35.8156 20.775 35.6844 20.575Z" fill="white"/>
</svg>
