<svg width="16" height="16" viewBox="0 0 16 16" fill="none" xmlns="http://www.w3.org/2000/svg">
<path d="M8.50623 0.90375L10.1887 4.74125C10.2521 4.88565 10.353 5.01041 10.4809 5.10254C10.6089 5.19466 10.7592 5.25076 10.9162 5.265L15.015 5.6325C15.4787 5.7 15.6637 6.26875 15.3275 6.59625L12.24 9.19C11.99 9.4 11.8762 9.73 11.945 10.0487L12.8425 14.25C12.9212 14.7113 12.4375 15.0638 12.0225 14.845L8.44498 12.75C8.31007 12.6708 8.15644 12.629 7.99998 12.629C7.84352 12.629 7.6899 12.6708 7.55498 12.75L3.97748 14.8438C3.56373 15.0612 3.07873 14.71 3.15748 14.2487L4.05498 10.0475C4.12248 9.72875 4.00998 9.39875 3.75998 9.18875L0.671231 6.5975C0.336231 6.27125 0.521231 5.70125 0.983731 5.63375L5.08248 5.26625C5.23951 5.25201 5.38984 5.19591 5.5178 5.10379C5.64576 5.01166 5.74666 4.8869 5.80998 4.7425L7.49248 0.905C7.70123 0.485 8.29873 0.485 8.50623 0.90375Z" fill="#FEB03D"/>
<path d="M8.38374 4.97125L8.09874 2.14375C8.08749 1.98625 8.05499 1.71625 8.30749 1.71625C8.50749 1.71625 8.61624 2.1325 8.61624 2.1325L9.47124 4.4025C9.79374 5.26625 9.66124 5.5625 9.34999 5.7375C8.99249 5.9375 8.46499 5.78125 8.38374 4.97125Z" fill="#FFCA8D"/>
<path d="M11.91 8.93878L14.3625 7.02503C14.4837 6.92378 14.7025 6.76253 14.5275 6.57878C14.3887 6.43378 14.0137 6.64253 14.0137 6.64253L11.8675 7.48128C11.2275 7.70253 10.8025 8.03003 10.765 8.44253C10.7162 8.99253 11.21 9.41628 11.91 8.93878Z" fill="#F49600"/>
</svg>
