<svg width="16" height="16" viewBox="0 0 16 16" fill="none" xmlns="http://www.w3.org/2000/svg">
<g clip-path="url(#clip0_101_141)">
<path d="M7.08105 1.05859C7.46072 0.315732 8.53788 0.312329 8.91797 1.05762L8.92383 1.06836L8.92871 1.0791L10.499 4.5625C10.5206 4.61035 10.5557 4.65373 10.6025 4.68652C10.6491 4.71913 10.7051 4.73961 10.7646 4.74512L14.5908 5.0791L14.6045 5.08008L14.6182 5.08203C15.445 5.19922 15.8161 6.21631 15.1836 6.81543L15.1699 6.82812L15.1562 6.83887L12.2744 9.19336C12.2063 9.24898 12.1688 9.32477 12.1641 9.40137L12.1709 9.47754V9.47852L13.0088 13.292L13.0127 13.3135C13.1624 14.1683 12.254 14.7578 11.5264 14.3848L11.5166 14.3799L11.5068 14.374L8.16797 12.4727V12.4717C8.11812 12.4432 8.05971 12.4277 8 12.4277C7.9405 12.4278 7.88272 12.4434 7.83301 12.4717L7.83203 12.4727L4.49316 14.373L4.4834 14.3789L4.47363 14.3838C3.7492 14.7541 2.83781 14.1686 2.98828 13.3115L2.98926 13.3018L2.99219 13.291L3.8291 9.47852L3.83496 9.40039C3.83005 9.32274 3.79364 9.2472 3.72656 9.19238L0.84375 6.84082L0.829102 6.8291L0.81543 6.81641C0.184339 6.2185 0.555263 5.20031 1.38086 5.08301L1.39453 5.08105L1.4082 5.08008L5.2334 4.74707L5.31934 4.72754C5.34696 4.71755 5.3729 4.70401 5.39648 4.6875C5.4433 4.6547 5.47842 4.61134 5.5 4.56348L7.07031 1.08105L7.07617 1.06934L7.08105 1.05859Z" stroke="#FEB03D"/>
</g>
<defs>
<clipPath id="clip0_101_141">
<rect width="16" height="16" fill="white"/>
</clipPath>
</defs>
</svg>
