<svg width="32" height="32" viewBox="0 0 32 32" fill="none" xmlns="http://www.w3.org/2000/svg">
<path d="M29.115 0.98999H3.11499C2.00999 0.98999 1.11499 1.88499 1.11499 2.98999V28.99C1.11499 30.095 2.00999 30.99 3.11499 30.99H29.115C30.22 30.99 31.115 30.095 31.115 28.99V2.98999C31.115 1.88499 30.22 0.98999 29.115 0.98999Z" fill="#F77E00"/>
<path d="M27.54 0.98999H2.99C2.49383 0.993589 2.019 1.19229 1.66815 1.54314C1.31729 1.894 1.11859 2.36882 1.115 2.86499V27.34C1.1125 28.375 1.95 29.2125 2.985 29.215H27.515C28.55 29.2175 29.3875 28.38 29.39 27.345V2.86499C29.4125 1.85249 28.6075 1.01249 27.595 0.98999H27.54Z" fill="#FF9800"/>
<path opacity="0.75" d="M10.04 3.21499C10.04 2.63999 9.64001 2.46499 7.34001 2.53999C5.41501 2.61499 4.46501 2.83999 3.89001 3.53999C3.31501 4.23999 3.16501 5.66499 3.14001 7.36499C3.14001 8.56499 3.14001 9.68999 3.76501 9.68999C4.61501 9.68999 4.61501 7.71499 5.31501 6.61499C6.66501 4.43999 10.04 3.96499 10.04 3.21499Z" fill="#FFBD52"/>
<path d="M10.925 15.5525V9.1275C10.9227 9.027 10.9472 8.92769 10.9961 8.83984C11.045 8.752 11.1165 8.67881 11.2032 8.62783C11.2898 8.57686 11.3885 8.54995 11.489 8.5499C11.5896 8.54984 11.6883 8.57663 11.775 8.6275L22.65 15.0525C22.9325 15.2325 23.0175 15.6075 22.8375 15.89C22.79 15.965 22.725 16.0275 22.65 16.0775L11.775 22.4775C11.505 22.635 11.16 22.545 11.0025 22.275C10.95 22.185 10.9225 22.0825 10.925 21.9775V15.5525Z" fill="#FAFAFA"/>
</svg>
