<svg width="16" height="16" viewBox="0 0 16 16" fill="none" xmlns="http://www.w3.org/2000/svg">
<g clip-path="url(#clip0_101_101)">
<path d="M7.0752 1.09375C7.42667 0.353361 8.41563 0.303842 8.84668 0.954102L8.9248 1.09277L8.92969 1.10352L8.93359 1.11426L10.5039 4.86523C10.5296 4.92668 10.5701 4.97625 10.6172 5.01172C10.664 5.04702 10.7166 5.06724 10.7695 5.07227H10.7686L14.5947 5.43164L14.6094 5.43262L14.623 5.43555C15.4897 5.56766 15.7734 6.633 15.1963 7.22168L15.1836 7.23438L15.1699 7.24707L12.2881 9.78223C12.193 9.86591 12.1431 10.0054 12.1719 10.1455V10.1465L13.0098 14.2529L13.0137 14.2725C13.1452 15.0796 12.3137 15.8153 11.5127 15.373L11.4932 15.3613L8.1543 13.3135L8.15332 13.3125C8.10525 13.283 8.05221 13.2686 8 13.2686C7.94775 13.2686 7.89477 13.283 7.84668 13.3125L7.8457 13.3135L4.50684 15.3604L4.49707 15.3662L4.48633 15.3721C3.68883 15.8106 2.8544 15.0808 2.98633 14.2715L2.99023 14.252L3.82812 10.1455C3.8567 10.003 3.80587 9.8639 3.71191 9.78125V9.78027L0.830078 7.24805L0.81543 7.23633L0.802734 7.22266C0.226836 6.63527 0.510626 5.56879 1.37598 5.43652L1.39062 5.43457L1.4043 5.43262L5.22949 5.07324C5.28245 5.06821 5.33598 5.04899 5.38281 5.01367C5.42979 4.97821 5.46941 4.9276 5.49512 4.86621L7.06543 1.11523L7.06934 1.10449L7.0752 1.09375Z" stroke="#7B6BA8"/>
</g>
<defs>
<clipPath id="clip0_101_101">
<rect width="16" height="16" fill="white"/>
</clipPath>
</defs>
</svg>
