<svg width="16" height="17" viewBox="0 0 16 17" fill="none" xmlns="http://www.w3.org/2000/svg">
<g clip-path="url(#clip0_101_2)">
<path d="M6.63788 0.850357C7.88171 0.905863 9.96584 1.25407 10.8498 3.47243C11.235 4.43975 11.2613 5.43599 11.0803 6.43825C11.021 6.76832 10.8976 7.24885 10.8976 7.67946C10.8977 7.89277 10.9292 8.07381 11.0012 8.2068C11.0689 8.33201 11.1772 8.42337 11.3605 8.45778C11.636 8.50949 11.8308 8.42748 11.9767 8.29567C12.1292 8.15798 12.2331 7.96033 12.3 7.78395C12.3861 7.55767 12.6577 7.47821 12.8488 7.60231L12.925 7.66774V7.66872C14.0659 8.96655 14.1581 10.4932 13.926 11.7879C13.4711 14.3225 10.9161 16.149 8.38788 16.1492C6.81797 16.1492 5.40028 15.6989 4.29218 14.8357C3.1833 13.9719 2.39217 12.7006 2.06757 11.072C1.80493 9.75116 1.93592 7.13967 3.97479 5.29274C4.22499 5.06388 4.62729 5.26844 4.59393 5.60622C4.5587 5.98241 4.5298 6.49916 4.56366 6.99001C4.58027 7.23075 4.61149 7.45724 4.66132 7.65504C4.68315 7.53565 4.715 7.40161 4.75995 7.25465C4.95159 6.62827 5.38599 5.77329 6.34979 4.82985C7.0265 4.16751 7.21046 3.28774 7.02753 2.59938L6.98553 2.46461C6.84406 2.06133 6.58347 1.72335 6.35175 1.48317V1.48219C6.11936 1.23928 6.29776 0.835751 6.63788 0.850357Z" fill="url(#paint0_radial_101_2)" stroke="#E71904" stroke-width="0.3"/>
<path d="M9.51377 10.1775C8.37752 8.715 8.88627 7.04625 9.16502 6.38125C9.20252 6.29375 9.10252 6.21125 9.02377 6.265C8.53502 6.5975 7.53377 7.38 7.06752 8.48125C6.43627 9.97 6.48127 10.6987 6.85502 11.5887C7.08002 12.125 6.81877 12.2387 6.68752 12.2587C6.56002 12.2787 6.44252 12.1937 6.34877 12.105C6.07912 11.846 5.88694 11.5171 5.79377 11.155C5.77377 11.0775 5.67252 11.0562 5.62627 11.12C5.27627 11.6037 5.09502 12.38 5.08627 12.9287C5.05877 14.625 6.46002 16 8.15502 16C10.2913 16 11.8475 13.6375 10.62 11.6625C10.2638 11.0875 9.92877 10.7112 9.51377 10.1775Z" fill="url(#paint1_radial_101_2)"/>
</g>
<defs>
<radialGradient id="paint0_radial_101_2" cx="0" cy="0" r="1" gradientTransform="matrix(-8.82338 -0.0382934 -0.0629107 14.4774 7.77696 16.0376)" gradientUnits="userSpaceOnUse">
<stop offset="0.314" stop-color="#FF9800"/>
<stop offset="0.662" stop-color="#FF6D00"/>
<stop offset="0.972" stop-color="#F44336"/>
</radialGradient>
<radialGradient id="paint1_radial_101_2" cx="0" cy="0" r="1" gradientTransform="matrix(-0.0932482 9.23158 6.94746 0.070167 8.27252 7.2573)" gradientUnits="userSpaceOnUse">
<stop offset="0.214" stop-color="#FFF176"/>
<stop offset="0.328" stop-color="#FFF27D"/>
<stop offset="0.487" stop-color="#FFF48F"/>
<stop offset="0.672" stop-color="#FFF7AD"/>
<stop offset="0.793" stop-color="#FFF9C4"/>
<stop offset="0.822" stop-color="#FFF8BD" stop-opacity="0.804"/>
<stop offset="0.863" stop-color="#FFF6AB" stop-opacity="0.529"/>
<stop offset="0.91" stop-color="#FFF38D" stop-opacity="0.209"/>
<stop offset="0.941" stop-color="#FFF176" stop-opacity="0"/>
</radialGradient>
<clipPath id="clip0_101_2">
<rect width="16" height="16" fill="white" transform="translate(0 0.5)"/>
</clipPath>
</defs>
</svg>
