<svg width="18" height="14" viewBox="0 0 18 14" fill="none" xmlns="http://www.w3.org/2000/svg">
<path fill-rule="evenodd" clip-rule="evenodd" d="M9.10164 3.30213C11.5887 3.30223 13.9808 4.22432 15.7833 5.8778C15.919 6.00545 16.136 6.00384 16.2696 5.87419L17.5671 4.61072C17.6348 4.54496 17.6726 4.45588 17.672 4.3632C17.6714 4.27052 17.6326 4.18188 17.5641 4.11688C12.8331 -0.257832 5.3694 -0.257832 0.63839 4.11688C0.569858 4.18183 0.530974 4.27045 0.530342 4.36313C0.52971 4.45581 0.567383 4.54491 0.635023 4.61072L1.93289 5.87419C2.06649 6.00404 2.28361 6.00565 2.41926 5.8778C4.222 4.22421 6.61428 3.30212 9.10164 3.30213ZM9.09828 7.5224C10.4556 7.52232 11.7645 8.03406 12.7706 8.95819C12.9067 9.08934 13.121 9.0865 13.2537 8.95178L14.541 7.63247C14.6088 7.56327 14.6464 7.46939 14.6454 7.37184C14.6444 7.27429 14.6049 7.18121 14.5358 7.11342C11.4719 4.22257 6.72721 4.22257 3.66338 7.11342C3.59417 7.18121 3.55469 7.27434 3.55378 7.37192C3.55287 7.4695 3.59062 7.56337 3.65855 7.63247L4.94546 8.95178C5.07812 9.0865 5.29248 9.08934 5.42856 8.95819C6.43402 8.03467 7.74186 7.52297 9.09828 7.5224ZM11.6227 10.316C11.6246 10.4213 11.5876 10.5229 11.5203 10.5967L9.34361 13.0514C9.2798 13.1236 9.19281 13.1642 9.10204 13.1642C9.01127 13.1642 8.92427 13.1236 8.86047 13.0514L6.68344 10.5967C6.61619 10.5228 6.57919 10.4212 6.58118 10.3159C6.58318 10.2105 6.62399 10.1108 6.69397 10.0401C8.08407 8.72625 10.12 8.72625 11.5101 10.0401C11.58 10.1108 11.6208 10.2106 11.6227 10.316Z" fill="white"/>
</svg>
